<svg width="24" height="24" viewBox="0 0 24 24" fill="none" xmlns="http://www.w3.org/2000/svg">
<path d="M12 22C10.9833 22 9.94167 21.8167 8.875 21.45C7.80833 21.0833 6.84167 20.5833 5.975 19.95C5.10833 19.3167 4.39567 18.575 3.837 17.725C3.279 16.875 3 15.9667 3 15V12L7 15L5.45 16.55C5.93333 17.4 6.7 18.1333 7.75 18.75C8.8 19.3667 9.88333 19.7583 11 19.925V11H8V9H11V7.825C10.4167 7.60833 9.93733 7.24567 9.562 6.737C9.18733 6.229 9 5.65 9 5C9 4.16667 9.29167 3.45833 9.875 2.875C10.4583 2.29167 11.1667 2 12 2C12.8333 2 13.5417 2.29167 14.125 2.875C14.7083 3.45833 15 4.16667 15 5C15 5.65 14.8127 6.229 14.438 6.737C14.0627 7.24567 13.5833 7.60833 13 7.825V9H16V11H13V19.925C14.1167 19.7583 15.2 19.3667 16.25 18.75C17.3 18.1333 18.0667 17.4 18.55 16.55L17 15L21 12V15C21 15.9667 20.721 16.875 20.163 17.725C19.6043 18.575 18.8917 19.3167 18.025 19.95C17.1583 20.5833 16.1917 21.0833 15.125 21.45C14.0583 21.8167 13.0167 22 12 22ZM12 6C12.2833 6 12.521 5.90433 12.713 5.713C12.9043 5.521 13 5.28333 13 5C13 4.71667 12.9043 4.479 12.713 4.287C12.521 4.09567 12.2833 4 12 4C11.7167 4 11.4793 4.09567 11.288 4.287C11.096 4.479 11 4.71667 11 5C11 5.28333 11.096 5.521 11.288 5.713C11.4793 5.90433 11.7167 6 12 6Z" fill="#777777"/>
</svg>
