<svg width="24" height="24" viewBox="0 0 24 24" fill="none" xmlns="http://www.w3.org/2000/svg">
<path d="M12 22C10.3333 22 8.804 21.6333 7.412 20.9C6.02067 20.1667 4.86667 19.1833 3.95 17.95L8.05 13.85L11.05 16.35L16 11.4V14H18V8H12V10H14.6L10.95 13.65L7.95 11.15L2.9 16.2C2.61667 15.5667 2.39567 14.896 2.237 14.188C2.079 13.4793 2 12.75 2 12C2 10.6167 2.26267 9.31667 2.788 8.1C3.31267 6.88333 4.025 5.825 4.925 4.925C5.825 4.025 6.88333 3.31233 8.1 2.787C9.31667 2.26233 10.6167 2 12 2C13.3833 2 14.6833 2.26233 15.9 2.787C17.1167 3.31233 18.175 4.025 19.075 4.925C19.975 5.825 20.6873 6.88333 21.212 8.1C21.7373 9.31667 22 10.6167 22 12C22 13.3833 21.7373 14.6833 21.212 15.9C20.6873 17.1167 19.975 18.175 19.075 19.075C18.175 19.975 17.1167 20.6873 15.9 21.212C14.6833 21.7373 13.3833 22 12 22Z" fill="#777777"/>
</svg>
