<svg width="24" height="24" viewBox="0 0 24 24" fill="none" xmlns="http://www.w3.org/2000/svg">
<path d="M19.9999 15H12.9999V22H19.9999V15ZM10.9999 15H3.99994V22H10.9999V15ZM8.99994 17V20H5.99994V17H8.99994Z" fill="#777777"/>
<path d="M18.45 7.75001L19.85 9.15001L16.15 12.85L12.45 9.15001L13.85 7.75001L15.1 9.00001C15 7.81667 14.525 6.82934 13.675 6.03801C12.825 5.24601 11.8084 4.85001 10.625 4.85001C9.37502 4.85001 8.31669 5.28734 7.45002 6.16201C6.58336 7.03734 6.15002 8.10001 6.15002 9.35001V12.85H4.15002V9.35001C4.15002 7.53334 4.77902 5.99601 6.03702 4.73801C7.29569 3.47934 8.83336 2.85001 10.65 2.85001C12.3834 2.85001 13.875 3.44601 15.125 4.63801C16.375 5.82934 17.05 7.30001 17.15 9.05001L18.45 7.75001Z" fill="#777777"/>
</svg>
