<svg width="24" height="24" viewBox="0 0 24 24" fill="none" xmlns="http://www.w3.org/2000/svg">
<path fill-rule="evenodd" clip-rule="evenodd" d="M8.1 21.212C9.31667 21.7373 10.6167 22 12 22C13.3833 22 14.6833 21.7373 15.9 21.212C17.1167 20.6873 18.175 19.975 19.075 19.075C19.975 18.175 20.6873 17.1167 21.212 15.9C21.7373 14.6833 22 13.3833 22 12C22 10.6167 21.7373 9.31667 21.212 8.1C20.6873 6.88333 19.975 5.825 19.075 4.925C18.175 4.025 17.1167 3.31233 15.9 2.787C14.6833 2.26233 13.3833 2 12 2C10.6167 2 9.31667 2.26233 8.1 2.787C6.88333 3.31233 5.825 4.025 4.925 4.925C4.025 5.825 3.31267 6.88333 2.788 8.1C2.26267 9.31667 2 10.6167 2 12C2 13.3833 2.26267 14.6833 2.788 15.9C3.31267 17.1167 4.025 18.175 4.925 19.075C5.825 19.975 6.88333 20.6873 8.1 21.212ZM7 18V10.425L12 5L13 6V6.6L12.4 10H18V12.075L15.45 18H7Z" fill="#777777"/>
</svg>
