<svg width="24" height="24" viewBox="0 0 24 24" fill="none" xmlns="http://www.w3.org/2000/svg">
<path d="M4 11.525C4 10.3417 4.39583 9.325 5.1875 8.475C5.97917 7.625 6.96667 7.15 8.15 7.05L6.6 8.6L8 10L12 6L8 2L6.6 3.4L8.2 5C6.45 5.1 4.97917 5.775 3.7875 7.025C2.59583 8.275 2 9.76667 2 11.5C2 13.3167 2.62917 14.8542 3.8875 16.1125C5.14583 17.3708 6.68333 18 8.5 18H12V16H8.5C7.25 16 6.1875 15.5667 5.3125 14.7C4.4375 13.8333 4 12.775 4 11.525ZM14 5V7H22V5H14ZM14 10.5V12.5H22V10.5H14ZM14 16V18H22V16H14Z" fill="#777777"/>
</svg>
