<svg width="24" height="24" viewBox="0 0 24 24" fill="none" xmlns="http://www.w3.org/2000/svg">
<path d="M4 11.475C4 12.6583 4.39583 13.675 5.1875 14.525C5.97917 15.375 6.96667 15.85 8.15 15.95L6.6 14.4L8 13L12 17L8 21L6.6 19.6L8.2 18C6.45 17.9 4.97917 17.225 3.7875 15.975C2.59583 14.725 2 13.2333 2 11.5C2 9.68333 2.62917 8.14583 3.8875 6.8875C5.14583 5.62917 6.68333 5 8.5 5H12V7H8.5C7.25 7 6.1875 7.43333 5.3125 8.3C4.4375 9.16667 4 10.225 4 11.475ZM14 18V16H22V18H14ZM14 12.5V10.5H22V12.5H14ZM14 7V5H22V7H14Z" fill="#777777"/>
</svg>
