<svg width="24" height="24" viewBox="0 0 24 24" fill="none" xmlns="http://www.w3.org/2000/svg">
<path d="M14 11C14.8333 11 15.5417 10.7083 16.125 10.125C16.7083 9.54167 17 8.83333 17 8C17 7.16667 16.7083 6.45833 16.125 5.875C15.5417 5.29167 14.8333 5 14 5C13.1667 5 12.4583 5.29167 11.875 5.875C11.2917 6.45833 11 7.16667 11 8C11 8.83333 11.2917 9.54167 11.875 10.125C12.4583 10.7083 13.1667 11 14 11ZM6 18V2H22V18H6ZM2 22V6H4V20H18V22H2ZM8 16H20C19.3 15.05 18.4208 14.3125 17.3625 13.7875C16.3042 13.2625 15.1833 13 14 13C12.8167 13 11.6958 13.2625 10.6375 13.7875C9.57917 14.3125 8.7 15.05 8 16Z" fill="#777777"/>
</svg>
