<svg xmlns="http://www.w3.org/2000/svg" width="112" height="32" fill="none" viewBox="0 0 112 32"><g clip-path="url(#a)"><path fill="#222" fill-rule="evenodd" d="M40 12.577v-1.649h8.336v1.649h-3.227V21.6h-1.875v-9.023zm9.977.046a1 1 0 0 1-.297-.734q0-.43.3-.734a1 1 0 0 1 .739-.305q.437 0 .738.305.3.305.3.734 0 .43-.3.734a1 1 0 0 1-.738.305 1 1 0 0 1-.742-.305m-.11 8.977v-7.727h1.68V21.6zm3.39-3.875q0-1.844.958-2.945.957-1.102 2.465-1.102.742 0 1.386.324.645.324 1.098.942v-4.016h1.68V21.6h-1.68v-1.055q-.453.586-1.098.918t-1.386.332q-1.508 0-2.465-1.093-.957-1.095-.957-2.977m1.727 0q0 1.14.598 1.86.597.718 1.598.718.578 0 1.14-.3.563-.301.844-.739V16.21q-.281-.437-.844-.738-.562-.3-1.14-.3-.993 0-1.594.714-.602.715-.602 1.84m6.907-3.852h1.804l2.258 5.79 2.258-5.79H70l-3.727 9.118q-.383.938-1.03 1.332-.65.395-1.61.41-.547 0-.946-.11l.243-1.5q.288.125.64.125.43 0 .692-.148t.425-.523l.383-.883zm8.75 2.399q0-1.21.433-2.25a5.1 5.1 0 0 1 1.184-1.754 5.4 5.4 0 0 1 1.781-1.117 6 6 0 0 1 2.203-.403q1.5 0 2.563.66a5.15 5.15 0 0 1 1.71 1.731l-1.585.828a3.1 3.1 0 0 0-1.125-1.12 3 3 0 0 0-1.563-.434q-1.586 0-2.633 1.085-1.046 1.086-1.046 2.774 0 1.664 1.046 2.762 1.047 1.097 2.633 1.097.828 0 1.559-.437a3.16 3.16 0 0 0 1.129-1.117l1.601.796q-1.54 2.422-4.289 2.422a6 6 0 0 1-2.203-.406 5.4 5.4 0 0 1-1.781-1.121 5.1 5.1 0 0 1-1.184-1.754 5.8 5.8 0 0 1-.433-2.242m10.875 2.96q0-.64.234-1.144t.629-.797.855-.441.954-.148q1.632 0 2.507.992v-1.149q0-.664-.5-1.05-.5-.387-1.304-.387-1.329 0-2.29.984l-.703-1.164q1.297-1.25 3.25-1.25.54 0 1.004.09.465.09.88.3.413.212.71.524t.469.793.172 1.082V21.6h-1.688v-.852a2.85 2.85 0 0 1-1.086.774 3.7 3.7 0 0 1-1.421.273q-.477 0-.946-.168a3 3 0 0 1-.86-.476 2.2 2.2 0 0 1-.628-.809 2.55 2.55 0 0 1-.238-1.11m1.68.016q0 .625.472 1.008.472.384 1.191.383.563 0 1.055-.207t.781-.59v-1.187a1.86 1.86 0 0 0-.78-.59 2.7 2.7 0 0 0-1.056-.207q-.719 0-1.191.386a1.24 1.24 0 0 0-.473 1.004m7.35 2.352v-7.727h1.68v1.118a3.8 3.8 0 0 1 1.137-.946 2.8 2.8 0 0 1 1.38-.367v1.664a2.4 2.4 0 0 0-.516-.047q-.548 0-1.149.309-.601.31-.851.73V21.6zm5.087-3.875q0-1.844.957-2.945.957-1.102 2.465-1.102.742 0 1.386.324.645.324 1.098.942v-4.016h1.68V21.6h-1.68v-1.055q-.453.586-1.098.918a3 3 0 0 1-1.386.332q-1.508 0-2.465-1.093-.957-1.095-.957-2.977m1.726 0q0 1.14.598 1.86.598.718 1.598.718.577 0 1.14-.3.563-.301.844-.739V16.21q-.281-.437-.844-.738-.562-.3-1.14-.3-.993 0-1.594.714-.602.715-.602 1.84m7.368 2.852.773-1.204q.43.445 1.16.762t1.442.317q.742 0 1.14-.282a.87.87 0 0 0 .399-.75.62.62 0 0 0-.258-.508 1.9 1.9 0 0 0-.668-.316 14 14 0 0 0-.91-.215 9 9 0 0 1-1-.262 4.7 4.7 0 0 1-.91-.394 1.8 1.8 0 0 1-.668-.672q-.258-.437-.258-1.039 0-.992.812-1.664t2.227-.672q1.781 0 2.992 1.07l-.703 1.188q-.367-.405-.977-.668a3.3 3.3 0 0 0-1.312-.262q-.649 0-1.035.27-.387.27-.387.691 0 .243.199.414.2.172.527.262.328.09.75.191t.86.196.859.277.75.43q.328.245.528.668.198.421.199.968 0 1.064-.852 1.743-.851.68-2.367.68a5.3 5.3 0 0 1-1.851-.317 4.1 4.1 0 0 1-1.461-.902" clip-rule="evenodd"/><path fill="#6B5DFF" d="M29.333 2.667V26H26v3.333H2.667V6H6V2.667zm-6.666 6.666H6V26h16.667zm-3.334 3.334V16H16v6.667h-3.333V16H9.333v-3.333z"/></g><defs><clipPath id="a"><path fill="#fff" d="M0 0h112v32H0z"/></clipPath></defs></svg>